<mxfile host="65bd71144e">
    <diagram id="sIRmuClDQcWaI3r07J5M" name="Page-1">
        <mxGraphModel dx="557" dy="299" grid="1" gridSize="10" guides="1" tooltips="1" connect="1" arrows="1" fold="1" page="1" pageScale="1" pageWidth="850" pageHeight="1100" math="0" shadow="0">
            <root>
                <mxCell id="0"/>
                <mxCell id="1" parent="0"/>
                <mxCell id="57" value="" style="rounded=0;whiteSpace=wrap;html=1;strokeColor=#000000;strokeWidth=3;fillColor=#FFFFFF;" parent="1" vertex="1">
                    <mxGeometry x="50" y="100" width="690" height="590" as="geometry"/>
                </mxCell>
                <mxCell id="15" value="" style="rounded=0;whiteSpace=wrap;html=1;fillColor=none;strokeColor=#000000;strokeWidth=3;" parent="1" vertex="1">
                    <mxGeometry x="464.15" y="160" width="225.85" height="190" as="geometry"/>
                </mxCell>
                <mxCell id="14" value="sandbox" style="text;html=1;align=center;verticalAlign=middle;resizable=0;points=[];autosize=1;strokeColor=none;fillColor=none;fontColor=#000000;" parent="1" vertex="1">
                    <mxGeometry x="440" y="120" width="60" height="20" as="geometry"/>
                </mxCell>
                <mxCell id="9" style="edgeStyle=none;html=1;entryX=0;entryY=0.5;entryDx=0;entryDy=0;strokeColor=#000000;" parent="1" source="2" target="4" edge="1">
                    <mxGeometry relative="1" as="geometry"/>
                </mxCell>
                <mxCell id="2" value="" style="verticalLabelPosition=bottom;html=1;verticalAlign=top;align=center;strokeColor=none;fillColor=#00BEF2;shape=mxgraph.azure.github_code;pointerEvents=1;" parent="1" vertex="1">
                    <mxGeometry x="70" y="380" width="50" height="50" as="geometry"/>
                </mxCell>
                <mxCell id="25" style="edgeStyle=none;html=1;entryX=0;entryY=0.5;entryDx=0;entryDy=0;strokeColor=#000000;" parent="1" edge="1">
                    <mxGeometry relative="1" as="geometry">
                        <mxPoint x="230" y="405" as="sourcePoint"/>
                        <mxPoint x="504.1500000000001" y="253.75" as="targetPoint"/>
                    </mxGeometry>
                </mxCell>
                <mxCell id="4" value="" style="shape=image;verticalLabelPosition=bottom;verticalAlign=top;imageAspect=0;aspect=fixed;image=data:image/png,iVBORw0KGgoAAAANSUhEUgAAASAAAAEgCAYAAAAUg66AAAAABGdBTUEAALGPC/xhBQAAACBjSFJNAAB6JgAAgIQAAPoAAACA6AAAdTAAAOpgAAA6mAAAF3CculE8AAAACXBIWXMAAAsTAAALEwEAmpwYAAABWWlUWHRYTUw6Y29tLmFkb2JlLnhtcAAAAAAAPHg6eG1wbWV0YSB4bWxuczp4PSJhZG9iZTpuczptZXRhLyIgeDp4bXB0az0iWE1QIENvcmUgNS40LjAiPgogICA8cmRmOlJERiB4bWxuczpyZGY9Imh0dHA6Ly93d3cudzMub3JnLzE5OTkvMDIvMjItcmRmLXN5bnRheC1ucyMiPgogICAgICA8cmRmOkRlc2NyaXB0aW9uIHJkZjphYm91dD0iIgogICAgICAgICAgICB4bWxuczp0aWZmPSJodHRwOi8vbnMuYWRvYmUuY29tL3RpZmYvMS4wLyI+CiAgICAgICAgIDx0aWZmOk9yaWVudGF0aW9uPjE8L3RpZmY6T3JpZW50YXRpb24+CiAgICAgIDwvcmRmOkRlc2NyaXB0aW9uPgogICA8L3JkZjpSREY+CjwveDp4bXBtZXRhPgpMwidZAABAAElEQVR4Ae2dB5gdV3n3jyxbvazKSlqttqkXq9uy3LsxGGOKaTYJtjGBkAYhISHfx0PyBL58kJACCQY+AyGATTAOLmDZxkUucpNkVUtWX21R7724fL//zF757uzM7L2re+de3fu+z969c6edM/+Z85+3nXO6vY04E0PAEDAECoDAWQUo04o0BAwBQ8BDwAjIHgRDwBAoGAJGQAWD3go2BAwBIyB7BgwBQ6BgCBgBFQx6K9gQMASMgOwZMAQMgYIhYARUMOitYEPAEDACsmfAEDAECoaAEVDBoLeCDQFDwAjIngFDwBAoGAJGQAWD3go2BAwBIyB7BgwBQ6BgCBgBFQx6K9gQMASMgOwZMAQMgYIhYARUMOitYEPAEDACsmfAEDAECoaAEVDBoLeCDQFDwAjIngFDwBAoGAJGQAWD3go2BAwBIyB7BgwBQ6BgCBgBFQx6K9gQMASMgOwZMAQMgYIhYARUMOitYEPAEDACsmfAEDAECoaAEVDBoLeCDQFDwAjIngFDwBAoGAJGQAWD3go2BAwBIyB7BgwBQ6BgCBgBFQx6K9gQMASMgOwZMAQMgYIhYARUMOitYEPAEDACsmfAEDAECoaAEVDBoLeCDQFD4GyDIHcIvM2p3nzLubdZeIuPlvWtj2v71rZu/OwG9Yv9u/HjLC2nfXdnWetNDIFSR8AI6DTusHjlLUhGRKPPgWPObT/k3K4jfB90bvM+57bw+8AJ5w7y2X/SuaN8enV3rn8P/9PvHOeq+jlXP5Dv/s5V9nVuGN8Dezl3DvuJnIyQTuMm2aFFjYARUBduz5swz5tvOnfoOCSz17k1u5xb2Orcou3OrYd4tkBEDqKRwC+uJ9pMd445O02r4XCnzwnWcxpfuBsinokQ0HmVzp1f7dzkYc7VVTg3qHcbGUltMjEESgSBbm8jJXIteb0MgSQt5xjEsmG3cy9sdm7eBudegXy2o/H0ZQcUGXe2NBaZVF2oTcp0O8m5DvOBy9wAiOcSyOiaeucua3BuzBA0p56+yWZmWhdAtkOKCgEjoE5uR4p49h11bgGk8+vVzj3X4ty2wxABGg1c4JlJnZymy5vlPzoh844zDOvj3KVoRTeM98loxABWst2IqMvw2oEFRsAIKOYGSOPZBdE8s9G5e1ei9WyBbNCAzpGWA/kkLSKj49TpbEy1OVXO3TTJuavHOTdKRFSA+iR9/VZe6SFgBBRxTw/ix3l2k3PfX4RvZyuEg8NGplUxtHN4yDMHu0NEs4Y795Fpzr1rgu8nirgcW20IFCUCRkCB23ISolmFM/knrzr30Fo0DjzExUI8garK+vJC/BXYgZfXO/exWc7NrS2Mdhasm/02BDJBwAgoDaW9+HkeXuXcXa8417rfdyR3xb8iYvDyfvjyQvT+T48wvDwg1ChpUnJUe/k//NCyp121beNnVqLj6zHFbprq3Mchokr8RSaGQLEjYATEHRJhbCSa9cOFzt0HAR3Hz5Otj0dEkwqpy0fTk89IcnrqIIUhRLL6EI/vzacHuT3Sso6+4ecE7YH0Wgh3teBrOkS5b/HhUNcTRvHyf7J5griQCvKLLm9w7vYLnZs+IpuDbV9DIHkEyp6ATkAGi5qc+7cXCKm3oLHQiDMlH5HOEfbfj9YyCrKZPdS5GTR6NfyGQX5OT18IoQeMIse1kgpTogTGN0RaIiNIZz8+pyYSF1dg/i3Z5tyrO517HWIazPa+kFamddL5RV7TCd1/4gLn3jsRzcpTrVIl27chUDwIlDUBSQt5dp1z33jeudVoQD1EEhncG4XFd/HpiWbz7mrnrkPjmFtDJjPaTl/8MZ7mkjoXjT+u/Uv7kgqm71S3DRHSVuLuS1ude3SDc4/wvZOM6ipO1BMy6kx0Lu02lvrcOgeTbKZPgJ0dZ9sNgaQRKFsCOkTXiMdfd+5fFpDJjObRB8KIIwrdmJOQTiufOjKVbyHq9H60i3FoPX0gHSUgSsPp7ByZ3mBpYtKSjlBPJT7+DqL8/mrnNu2BiChH3TlENJ1JHZrZR2c798nzfDOws/1tuyGQJAJlSUDqlzXvNef+CbOrEU2jM/IRGezAFKok1fnOKc59YDLaBRnJPfDpiHjyLTL1pBU10e3jUSJzX1/u3B6WazDtVH4cEWlbFZraR2Y49xn8QvJFmRgCxYJA2RHQERryE2gS/wez63U0nwo0iTit5TDEs5N9bhvj3KfRJKaPxAxKiHiCD4mI8AhpAevwD/1kiXPf5joqMCMrIKI44RLcMLS0O/EJ3Y5JlokZF3c+22YI5AqBsiKg47TEZ9EgvvEcWc34fIbFkI/8MS3sPx1n8p+dT/cHzK2BhLbVQ73QIuf1HqJmL25y7ksvOrcWx3Udzu44Z7PIq5r6/9HF5AuhDZ1dBNdRaByt/MIjUDYERPtzL9Ngv/kMCYZbiFrJXxOh+iicvoXPx+tosJgts0fhcylC00X+IZHPd15x7kdoQzWQipImo0Q+rDEDIa0rIdRJUXvZekMgOQTKhoDW7HDuu89htqxxrpZGqgTAMDlKIz1GQ/7MZOf+YC77Di7uCJK0oS2Ykvcude6vXyL3iIuSiQV/hsoR9p9LmsDX3u3cuXxHwBB6rK00BHKNQMz7MtdFFe58GiRs3krnfrzBD2VHkc8hGufZmDJ/Ocu5P73UudFEuJS/U8wiJ3QNJKko112XQ0b4g45hOkYRS2/2f3YbSZeQ1Q7yjKKIqpiv2epWOggUefM6faCP0hhfWO/cfxH16obDVkl6YSLyGYCj9guQz6dx1lZjqkQ14rDjC7lO9dTQHDdPxzl9BTlEmIvyd4WJ9h3Av5/gC7t/uT++Udh+ts4QSAKBiOaYRNHJlLF6q3P/g/az5ABZxZgmQVGDPAb5dKPR3kk/qlvRJDQkaldE2gSnKpgMJU3gBtIE7sLRvIU7q/B9mEgD7AUZ30UkTcmOUfuFHWvrDIFcItBJADeXRSV/rp1H/KjXz3A6V0dQrRyzuyGmvyLKdQvkMyJL8tlLWHwDYfGt+GEOHvUbc79e5AyhkYwb5tzwvsle9xDK++A05zSA2pdxTtfBimHOdiUyrqTD7c8hobFDnRN5iYxNDIEkEShZApI28mqjP6RGb972YeFz9Uxv4fOHdWQLQz51hNwzFRHXwib6j21Au4Lg1qJh7SHH6A3ONwBUx9CgZw5nXOfRDB5WT64OpJSUDKPsW8lZ2ggp/ohsbyUshomiZv+BeXpFg3M3not5GrFf2LG2zhDIBQIl+8g17kX7oXE9TdeFugjtZzN+khshiQ/OcG4KEaFMRcmM81Y5999Enu4jDN6N34NQH/BfewIXudf4d/82565qpssGZuBlEyijCid3QmrGqAqIdS714Po3oaGFJR+qz1pfQvk/WgZR1kJUEHCUg77t0uzLEMgpAhFNM6dlFORkK2j4j6GhSKkJM0GOQD5jMVc+MMW5i9BSMuUFDaWhPmTKpL4f/0kNmlAdND4AbUJmjT79+FSzrpaTvriLiNpCUgCeZayh5YwlTeQpCdH1iFT/4gIiXTjXlVgZJkOp6zw0uOc20TMfTdHEEEgSgZIkIA1rsbDRucU09gEhVyjTawct9EP1mB9oJpn2j1IjXoM28S8vM/0OZXiJfzHMJW1iOEQ0CtL6AdrYlyGhn7xAQuRmulSgNeVbNPbQlePwbY33xyoKK0/k3Jv63UOUcMchC8uHYWTr8odASPPMX2FJnXl5i3Pz+VRAGGHazzYa3DVDGNAdx3PD4MxrJQ3hIUwv5dEoohbDPe1OqlydeohoB2bZXy927lvznXsQ800926liXqWiN/6gmeQ0oQqKeMOkkrrNQ5t7pcnC8mH42Lr8IVByBKTI1wrI53kae5j2oz5RxyGP94zGSYzfI1OR9qMxeX61zh8OI2P2SRUAW6nTqLKw72tGK3mWZMAFmD5oRvuOpXbKz/e5+J5uJrM7qpuG5/dBI3uALPH9R/NTBzurIRCGQMkRkELiy9FQzsI3E+ZQbUX7uZ6w83n1hJ77hEESvk4EJNNuGcQWlR0tBUPT5ug7TLRedao/h1wjwvdfX+bcV5/Gl4RW9DrObA10lg+RKfbuSW1aUEQBVZDjzyHGZrQy+blMDIEkECgpAlL7XUvEaSERsOEh9pFI5C2u+Np65yagFWQjOnY32pXGbA4z60QuIqazezFdMw24MzLpAynIeT0f4rnzeTqUPscyzm35YfIhGr/oOvxBvSLuuEjK0cP+JUhIYw+ZGAJJIBDxOCZRdO7L2IJ2ot7hGzBpeoQQ0F6IYU4F4zbXoIH0zb58jd+sVOeQU3v+le5oNv/7fHrQ09DfIia/i/1l8kWJiKyBY6o553dXO/e5J9FCSB5c1pp7J7X8UNfgjK4iRyisSromEehDmzDDIFoTQyAJBEqKgDbtxpTh04cWFtRS1OgO8u9KNJ/6ytOAVicKETl4j9KKr5tC/s1lzv094e/LhxN2Z1/1sI84zFuvhi+zbPt+5/78RUyzp0ghwNmtqYHiCCykGrGrJnLdU7l+FK9QqUQLemIHyZmU65Ft6F620hDIHQIlRUCt+C/WYcJozvagKHNZmYIzGK+iamBwa2a/Q07b7sDjsIwsmSkQz0fmOPdFiOhLEJLmdN9J+cqSjhROXgkJ1XKC+xpJjnyCMaAXkM3dxLzw+ItyIZoW6OIGnOF8h1XF820dJcWA3KXjRPxMDIF8I1AyBKQ5tURAjTTWMPNrJ+bQlYPwu6AF9BZL5EGkdXl+Jlr3AMhOOTifupR+ZheS8DgKAqLcgxBRVDhcpOA5qTlWTuq/xzn9xced+zUh+0Y0u1xoJbOoR1X/8Iv3CJZKLMSPdowMaRNDIN8IlAwBKUSugbkO8OYOi36dpGHNhnyGDcg3pO3P34DP6cPnOfcnlzO06zS0I7QvfOSZOanRVJ7Dp3XbfEZy5PPSRo5FQxFRdVVGUX79UPw9sE3YefryRKjMQ3lODehq/e240kKgZAhIDuhWSKgfrcp7k6fdJ2klso3GD2aW0i44n9NO1aVFzTd2QS0Dwl8CCV1EDlA99ewJWaINeXWLOGu6k/oufEKfeoxxjXBSr8NPcwyi7Yr0xgE0fpg/E0jY8f2p61IyyEXontkatpOtMwRyhECUPzJHp0/uNHtpMDt4a/cKsg9V0Hg/rjfDlWKC9afhF0o0NIc6vo4b4dzE1f5cXwvR2rpTv54h9VY9xZ2ekxqzbBfO4c8vQENphoxm4c8ZjalH2D9bmQABVYDDviMdyVqakQPHPWx7A7PV8wtlW4DtbwhkiEDJEJBCxzvxm4RdkPwusyGgwRBANlMcZ4hh1rtNhYDq0MaUi/TYa3TtaCF3CNMKX3Vs/ZRJPQBGur+RbG/suL9A6/swhJbtUB+1ImII7W0wC4qXLQ0B7Tjsa0DAZmII5A2BsPaat8LydWKZCntpTAd4Y4ddEG3b1dG6NYNpsYic1NdPxBwa7twktCH1sF+Eo1mmlYaNjVCIfCc1vqFWyOc7L3O97PuJ87LTVAbBKgP5dEf7ipImtC2vd3wRYRZVV1t/5iLA43vmi+Z4PwTLHISAgvk/3tWhNdSQgFdMBJRCXZ1EPzkX0+pKfEMT/IHMUEA6zf9RB9KNaCkPrSBqhUmWjfSFwAYTCZM2KBOvg7Be/jSZYCaGQD4RCFMY8lleXs6tqWn0tlakK6g5pBrYUN74yoMpRpHGc0kDviGidFPWOPdbzLJXcTQroqeUguA1pa5hMMctxxSbzzHn1bBvhq8TjXwoDUiDowm7sAIOEIaPShdIlW/fhsDpIpDhI3u6xeT3eA2qrg6USgSMaqx9aHTFPhvocLS0j88mb+hatKGpmGdoKVJCxBFhonSDg5DURsiqOcacCh4rx7JISDc/RdDt9mk771tRBbfb2X4YAl1HoGQ0oJNtGpDXqkLw6MWVngkRHZHCdJzTDXQenYlWc/9SPzHwAImWweFcRbbafxf+LxHQGBzbmYpHQBFsrXPupzzTgDJF0/brKgJ61s540Zs6NbVMhzbV9orXoPRnnUFXKyf1jZOZJPFqxpNuoH8W1xiWM6RLkg/scJaZyx4eEXceqNxhzhmqHUUcY6sNga4gUBIakEyR1GBbajTtSEg/WClfR1gD7gpoSRyjumr86EWbmT6HvlnDYZqwDG/VRZpdttqdh0fEhQhDzaDaDseIfW21IXA6CJQEAXXnlX0OV6KQdJQckYkmh8oZIIfQZl6BeO5exJzvfFdBnho/SMQQFDa5gSQjVuIvylR0nuOYWFGEDFRuIBpYaEQx00JsP0MgAwRKgoBEPDIplLIiv0WHhsOrXINsFXtYWYSwDm3nvmXOfW8lOUH4djSlULco8mF/XXtNBT6jLPw/MlfV213kFaXlDCBi2AHHDB4o28UQyAaB0iAgWpEISCHroOM01cA0g2kxDzGh0RZ/t9a5/3wVp/N2+opR8f5cU5xoeI9xJFjOrPe7VsTtm75N88YfJNnIUwhTAKXvwLJ8UGeSzyxQfft5hiBQEgTUk7d1X8yQvtIU9FoPCo2smcS6w5BQsYnMwsUtmFpLnPvNBkgS80sdQiN44VT1NVCZ0gouqXfesB+nNmSwcIQydoNHZGdTzj0cYoszaTMoxnYxBDpFoDQIiAZbQYMZSIPcQ+MKhqtlmjWSNXysyAhoM6HzBzG17iebuZGuDyKdTJzJMtWOsPOH65372PnZDy+7H+1Hfec4TXjWAiRex7Ad8quZGAL5RKBkHrGBdDQdgtmwg4YV7L4kjWItjW4PJCQFiZ8FlcP4o55ezxQ/S5mksNUPo0dFuNIrKsKQ+dSd6/wU/chuv4Be9ZXpe2S2rCFXD0LUYeINActToaRImbUmhkA+ESgZAhoEAVVihtGmHYvtRCFlJettpeEpwiT/RqFEUwb9Gifz79YxgFobIWbi7JW/ZwefS+m8ettMptmBgIag9XVFXt/BUBxog2Fmntc1g24a6rBqJlhX0LVjskGgZAhoBCMdVtMg6STuggEhbwgOtI71u/F90OgLQUDSzOatop8XJpfyejQ3vQggjATSb6Cc6ppdQxrelyc799EZdNEY2nUHsXrba0Czw5wzTI6gIo4VmRPW96bqCdvJ1hkCOUKgZAhoOA1GA46pi4HCzB3G/aGlL6Hh74ahGtgvKZGjd0Gjcw8vd+6FzSQXYgrKlOqMeFQ/kZTmsP9og3N30EfswnqiY2hvmWhMOj5MNO/YJnAI67ir/fdTuZuHQdJokyaGQL4RKBkCUuJcNcQymm+NmxwkoBGYYfPoOf4ptKBpNZn3HO/KDUj5c9ZRljSep9YyXRAOZ/lvRB5x5KNtMoOa2XciqtzfovG8F81nJBpeKtu7K3VKHbNkC6YfJBxJgmyYW0UmNDiaGAL5RqBkCEhAVUFAY3CePoe5E3yB95RDFWJaudW588cw/Q1RnlyLolPSwPbjX3kS0nkM8lmIz2cXfic5vlPEFFkux7diIp2g8X9hCj3jIZ8pI/xhRE5H60mVp5D/C41+pDC1Lv3bC8vjwZeJp9QGE0Mg3wiUFAE10HAmVpBPg4+Dr3aahjQLjRf9LBrANZggXSEgaQ1RovMP1vkbnVtNZOv5Tfha6MslUgpqY2HnOAo5bEfzuXoUM6vO8sd7lpM5F1pPqryNaIDLWyA46qT6BmU/dZhFVK1GpqxFwILw2O88IFBSBFSDVjMejWH4ZnwcaB3BAbqGooY8tYdJA2mEU6qzH0vZ02DCWi43RlnDb1Dmj1/wRyo8gtNbxBNHPjqV/FVNaD0OH9Y/Tvd7wNcP8TWpXN/vJ4m8NWN+Rckh6nJzg59TFbWPrTcEcomALIOSESXxacaJCyCi/TSmoHhhZRr7k41+JCi4Pe63yGKAEowwTYLdPVLHyXezfB8Jj5CPkiF1TKSghWxlvya+7yCkPv8G/FPk9YzDASwzLtfSRL1+t8YfZiOsXl74Hbv1kjrSGIKJVLmujJ3PEGhDoKQISNekQd5n8jlMKwsjimqu+D5MtKWbCdmjsWQqMoXqME1GEaL2GmvEgeqPFufrUeOXM1ozuI7B3PnpNc599WoiXKPJvcHkijs2osiMVj+2Fkc4pmcUK26DmK/D+TwGM9bC7xlBajvlAIGSI6CRmDLn4keZgjNaOS1BkZZ0NsQzbz1T22CKZSoihioiUe+twakcct7OziPikT9oE8SzFS3qq2g7P32PczdhdtUS7cpno1+zk8HrcYhr4LIwEVG/QQVvQRMbCAmaGAJJIVByBCTgFGa/rpp5wmhYYYPoVOFg/TVakAZz34KjOFPRoPafmIYGgxYkLSYb2StzCwJ4P5rOIxDPZy+inhBlvidKVOKhhvdYAQlFRdI0ndEMtMaL64t34P5ssLZ9zxwESpKARuPEnYMvowGiCNOC5BgeRKN7eINzL66P6RUeuI8yw2ZAbD+YixbDclQ2cfphCm3L3DpBWO67lzv3f6+l9/oE55S5HeegTj/H6Sw/t5E+Z2RghxGxd15Iei+fz0zx65QvE/B0rsGOLV0ESpKA5ACeUYu5BFmo/1SYL2gAV74Q7ecBTJPFTZnf4L7k6HwALeh7l6Jh0V+qEXPuEGSmaJZMLH20rLC6iKeVcv6M/R+7nujbbGZDRdPQAPlJyFq0nh++AgZ0P4nSfjSXmjq0XklulCUfJnFXrIx0BBJqCulFJrM8lkZ1xTh6nW+DBAg9DwxcqRrkSKrya/KCRmGiVKKRZDqrxFA0q5tnknWN7+aB1Wg2IjCSHx3mjufk5dzKhLy1gbng8avMhAyVW5Nk585dkM5PF6Hl4eeqVH1CRMS8m23/OAMMqF8SGllINWxVGSPQ7W2kVK+/db+fl/OVpTh6aWhh5sVRtJXBhJ3vpBHeMgczBOd1piI/kHrYt9Dlonmv3+Oe07lBkI+GSR0FQY3kW1pTknIAzesXi537EjlJAyHFsOsWJzXhl/oQms+3rqcbC/WM0pKSrLuVVV4IBPSC0rr4avKBrhiPKbaV7Gg0nXqcyEHRUB3baLD3Yor1g4hungUhYVplIsoWrodkFMU6xDnk8JVovc5VCI1CCZCaWfVrmF59MA/Poi5hIt/Um32c+zRmofxRRj5hKNm6fCNA8yttUaTp5skkEUIq8tWEWSMDQWH1IUyWpX6v9b3HssNEICpJcRimmT6apaIQ5KOxjh7D4fy1F7lWTMKo7hTSeVv4/AMpAOfXYBpGkFR2KNjehkD2CJQ8AYkYrpjg3BcnYSLBPlFJhJU0wqUHiHDhN/n1Ehy3ENKZJBoBYB5a3FcX4PzeBwnGkEorRPx7o3GKz/CJ+Uy6TqtraSFQ8gSk26UM5huJRN1Wh6+GxhcVklZfsWX4dP4N80U+FHVfOBNEvq6Hljn3uefIdsYXNSzGsJYWOB2T8bMX+OZjmEZ4Jlyz1bE0ECgLAtKtmkLI65aZhJuHoSG0+WrCbqE0oRYiSP+MJvT/cOIuayWHR57lIhRpc6u24r9aCLk+Tz4TWlt1DPkcZ/8emKJfIo/pvNpw53QRXqZVqYQRKOkoWPC+aSD2RzFTvomPZBGaQgNO6agQoKJj2znBx/CR3I6jdgbfw7KIkAXLzvVvzSOmriT34rf6wTpGAECViZo9VWWLrN7o4dzfQT4f43psxMNc3xE7X1cQKCsCEkD78JU8uNy5r7/EsBkHCZeHRMZSQGog+BZMlvFEiZQpfO1EzJahdJ+gIRdKFOVq3MV4Q+ud+9cVOM9ZruUalKUdRaaKeB1nny9DPJ/E9OrqYPaFumYrt3QRKDsC0q1Ukt79OJplZq1nuTbGbFGjVrbwHr6vx4y7fSqJhWhDwwf6kS+dLwk5jPamnKPXWvFPEen6xSYyl6nccNU9xpEj87E7jvjPUe9Pov1U9U+itlaGIZAZAmVJQIJmJ8TzEJrQ93A2L6Jh1ytqFNOQNV9Ws3xHNPibCO1/DG1oBt9DMMsG4lfJR292mU0HSAnYiab2GnlMD6wlVWAzdSDnSKQZp/WIOEU+ymm6czqpCGg/o9DkTAyBYkKgbAlIN2EfjVuDxt+NE3c+Kk4tJBSWNZx+w2TOaNxmx74XDqerRQO5NNVE2oaQ8Uz+Tx+0DfX16koekPqRaf56mVmHMBW3EIVbjMbz2434rrZRJlrQSEypnjHmluqq83BpbjTk+ElC7R+aRXcMkg5NDIFiQ6CsCUg3Q6aNBpC/F03oF0SUqmi8auCdiTqcbsM000Dvmgnx3ZDRZVXOTSbKNgrzbAjrekAWmt5YfcA0ZKtISRnH0k7e4ngRxRtt5zgO6eyHdBRSX72TXvpoPL8S6RDZkmY2ivNoLCMdGyfyW73J/nMrIZ5ppB9genkjOcYdVAbbpMHqngm/9M5HeuHoI22SL5OEESh7AhLearSLmhg351WSENE29mDiVOiBzPCJ9PqEiYj0dKMZnY2pMwcCGo+/ZXQF0TO0D/UH6wMhyVSTaSUtR+S3C9LZBOlswMxawmcvH2k6ag3D2Lc3n0zqoUZFtZ2mJ7quxrn3YXapM65GBig3SWmSGhrX0ygBRqas8D6Bhin8hZdeDJp+uhf3RVHB/nx6QPS9wFBabJKdh8vtHqWu1wgohQTfjXud+59lmDuvM2c7pNCPB1VaRzZt2BuKg+P28OHPJyWdQOQk0XfYCVk3mLL68Mn2wdckg29z/CSI77qxzt0A+UxBEysnEawinEMQzS60xs3cy5XkUSxFm9TsJEvx+Z0QQ8t8Tr0swFo+PYfZPBlf2VhM1ikkaWpwtrFD2gINrNdAdNneE85qkgECRkABkNSf6pkN/pxez7XyIKOh9KVxn44mkeKeQFHezzAuCtsvbJ3MCtqcq+LNfVGVc1dN8jvfDuZ3uYi0naOAsOOAP+fbU42Yrs2kT+A/88iGL03H1B+y0ctEnCONUrjrvnhmsM7B54D3xtAOfNBabwbT6+qZ5ACNsgZi0mD9+Qg2UFrZihFQxK1XNwzN5f7MWma62MNbFWJCM/f8BXo+CyWpRqOX+CAqNHUQM1mMYa6zKQx2xlu7XEQ4SONpQdN5mhfGPau5V2g8Ip0hsIySMuXb6cq9knmmCOJWgcwJBqBZfhZz9v0TGbwN7UimmmlEuXnSjIBicNTbcfk2HnBIaNEmuj1ARNt56LuzXm/SziJmMafOepPqohf0WzSIoZgEkyGe2bXOXTqevKRqyFEVKhOR438HZpVM5R+uwGG/A3OZax8E6XQl+hgHG7C7Y5SnSSOlFX1xAuOCE1kcj5NfI0h2heDiyiu3bUZAGdxxNf5VPOQioiWbcRrz1t2Cr0HjTXdjmx7ClFqfweky2kUPvt7E3jcF9IJgZGo14NRWt5DLeCNPG4lZUWYt4Aia6IuNEM+rRC75roAc1PM/E0e9O02RVrSF8sZC/l8kteH95/IyINhg2lDXgTUCyhK7JpzTipgtaXZuLdrRFhyee2gUIiMRVVcUEZGMmMb7hlD0Le1Kg6UNQtup4iEfh+o/q5bPKEgIf0Su3/RZwpD47iLjXUdIlVjqJ4/KsazZTZLUQlMXLY2IW+9+H+3zLy/2tSFFz0yyR8AIKHvMvCMUet+ISbZiK0SEdtS0i0xp/EYKpytZMU5Sm6W86KNGpOdXIfe+LAzE2alRCmuH+DOlnoszdNxQLIAyfchFyBvB99sLIKA1kC/YZ5KrxWGeeMTOUuq7bfWpL92DlKQvp9aFfese7sXfpIkcv3klpnADWiovC5PsEDACyg6v0L31YO8hWvYaTtB/eAxzDRMt7M2s/ZTwpumCBuA/OBtC0ZtTTs3BrBtG3tBIiEcajgaxH4rPodw0nSDAwmwV6sY3nyEyuckPBGSCiY6TiFA0W62IXQQvX5lMJq33oogwiWYwOQKZHGOZRU+0PRPRZI/duG/fvYq+gviHFLI3yRyBMn2nZg5QJnvqYR1Cvsg0zKQKiMV7ukMO1Dxi/SGaL/GwyqRSQ1BouA/HaAxpFk0CCKyEfL72hHMLWvxweibEIPKR+VoJsY/CZ1aPJlkHqWuM8MGQupzHekEoSVHZ59vQWpt4aTSi0Tbx0W91QJaW01l5vWlBJ8kx+vjjzv0X57txipFQ4BbG/jQCioUnu41KCNRDGyV6E2/igdebWN01RD4m0Qis343m8zRJoa2QNdh1RgbyEwnbMRDOJfXkRjWQmkC0So7iTLSmg8f9ZNSFzYT0N/p5RcqKF6HFla37OIT9/ni+/yK5ehwmorWs6BubtsVgSgMj34se4UBAy/AbTSF0rrexSTgCGq3gW88Q8YIMJHEEkEpRmATZfAgN5Lrx+M8wYTMhHf/s/n9Nkz11hP/54FTK3uzcL5f73zK1wszq1PEy7d7CSf6nTzn3M7Th2TW8YCBDk3gE7B0cj09Ot3qNiH+P8GDv52E1CUfgBObPjxY69yxaiPrpebiF7+olDL6FSfWp2c79+/sYemRObqKEFZhv10Nk//xe575yNYSGCef1IYuoh1b3gnB2E4j4++fpVMy3iNEkHgEjoHh8cr51JDrnPDSgNTis9VY16YjAvDWMfYTmIZ9ZFPmobe8Hv0o0ne9cS17OZX44XE7+XIlyiwahzXx0unN3QW5XjSVDmoJl6kWJZuB9pIk8pcX4kcgVM4lHIIe3K74g2+oj4GUs4y94gEa2G2enSXsElGf1UxrvdkzVOPLZBvlMJxHz+9czFMoknPuYT/kSBQsmD3fuG+8iCxoyOkHFokhIda7m39dW4Lva7Du681WvUjivEVAB7qIS6L6PebG0xR+WowBVKMoiZeL8cim5VUS+YpQMt5XuMBfhQ/vX60jMxNeShMNX/h+lSfz15c7dMcPvBBxVRy+yifZzF0SqLiNR+xXlTUi4UkZACQOu4rwZS3lA715G2Hd3ASpQhEVKo1iFWfrwarQGTK8oOYDmMxZns5L/JuEwTtLRKxKSSfb5SxgJc3K8j2cIL5kHmoimbeAlQ6a8STgCRkDhuOR9bQ2+ggebGX8IVX073TnKXaT9/AbykQkW1a9LGeZ7MLW+dSkmEeZXIYbGUN0UvfwiXTBmUocoR7MicD2p789W0YXETO3Ix9sIKBKa/G7QA4pbwX0HAnqch3Q/fqFyFTVidWt5bF10g5YZ00qD/qfzGW62geTNAmYcSxNSVOzzF2GWkWMURUIa0fIxcpiUV6TRGE06ImAE1BGTxNYoW/cEpti3CTn/jrf/IXwb5SgyvxY00o+ObOSoXBtFvC7H7/NB8nzyPakiPOfdi8Mx90P1vKieGVIwxTRSgQgyKF4eEueYhxmmkRpNOiKAIWBSSAT685ZcfwBN6EUcm/g+bmCIh3IaRF4N9xDa3xM0Ui+yRMMOitbvo5H/Mc7fEWSQR5FU8Lhsf2s4Xc1C8uTrTIWEKah+euOqnLt6gnP1FR3PJuf3zdMgz434r9DgQqruhrHPj5qYlw1y1RRONnRHexyNgNrjkfgvPbQDaVwr9hE1eQkfBwmKNxHqLZc5vDQ7yHp6ur+KAzpq2NsDEPN1tUyDVI+2kacnVsmPmh3lB7wIlhEY0PAqGmupejOaGVG523E8jxvS8fEYT2/4q8bhu0KLPcwxQRKSluvI6l6yFec5NvfAXh3PUc5rBI9JgRFIkdAqNCElsP37fN6qm+KjQQWucs6Kl3ajweO3Qbxhmo00JJQHdzNZyRoxIMpBfToVUtTtCfKy/vk5HOGQjaZK6kXBZ0EozdTr4Q1MYomvTo7yoKjOV0JA1Wg3ngYX2MGrL8e9soXe9uYHCqADxh3W2IqCIaCB07fiK/g5jeHb8yGjF8gV4s2pkfhKVdT4pR2cE3GNMosq++NvqctP1EvlPwne//o8I16iiVVzD+S7EXGIXJQ4egDiWLgZkoyIVk4aRqdXtBvl/4gwgzIAM3vBTrRbNKGw7cH9y+l3nhTacoIwu2sVmegB9xyUIYdqBoc3aRSP8yZeiVm2mAdfc9Gr8+oYHnTN7V5Kw7CKYDR1jpchHoLHIba/Z4Q/TlIuu1moqGM4tp/C7PrOAoIAkE8dBBKlYR3mxSBfVZj0PYcOrNyfFxoJueN05ha2E71YNEaUpguSn68Q6QPtKlREP4yAEr4Z/ckhaeFh7kvD0hxgYSJyquCjqaN/SQj3KUyU6etIvMMHofDvcByig1D5NSe9BsBSMl6Y+RJ27mJaJ22glYYpzYJLCJV97DSnKvdj7JwiH7TMR3dAPlQginw0EUAvfDdKQoySKZDk4J4+AQX38V42ENP2g2izRkDt4DECagdHfn80osp/YxY5P5DPQ6j9q3kglZAYJdIK4Bx3kuPm00geRlOohHBqeNBH0hiG8K1hWqX6n4kEpOveDclqwsAw7cbzqXC9Gt9HU1tHyUHw0TRKB476pFw3CILnuCgR+WiCgf8Q+UDuceQjjVUkLz9PJT6oKBk5kPuh7SFmmkdsEGkzPj4NgtavR9RZym99zONffmDk/Yp5+BRGvnksPgMayTdeRjUn3FvLXYgiEKnzIhh2dxU8xG/wJm2iwa2BvA5KhehMtI9OEiZx29L3j9ovfX36so7Vb0l62cF92OxFmiLUHyX4DUPzkNkZhc/rEPOzr2PGbcFZDZkNgpSnjXLu2sk+cXl1SPunEQiehvy/+yK91jMgn7eo20enkH80NboOOr2G7xgEAelS4Kx2l52CYCvk9Ablm7yDgBHQO1gksiSfxwga1Pun88bs49yPFzt3fzPLPKX9O7kbepOqwerlzqGedpRIpQtUiBqyMKlA2wsjoEa0nl8ugkxI4twO+ajxa5xn1+Lc/4LYPzGHiQTxm6XkFPm85NxvOyGf4xTejRN+6lzn/mCuf89S5wn7llajYXVlbim1oB0DtR0gZ3ZU1nTYOcthXSePfDlAkOw1qn3IEal8kKsm8nYf4Ny5K+nfxFt8N1GSkTz05qT074lMMGGhbhe06w7ywgb60+EbO4YJV5/2JCuD+etgqsb++yIhIlSe2YXmo1yr326LN7s0OH13znc75HPnBWioUj87EWmpmhVDLwnd47D6ql5GQO2BTLtt7TfYr/wgkP5gakDzGbU4lSEhzW76AG/y/9xMubwpR9DwNPVMlGM0P7UrvrPq+j0nbjpwVFPajBIE16P5VAT8Q/3Arjsk8g+r/OjaezCfdmP+/ACT9zdbIR9wj8L1KMf1hEhuw+y6A81H/qRMRecMVLPdoepMG5Yr1G6nMvthBFTgG662U01UazBRrfG8qd/VTAieN/uPW9lwxDc9REbeoOydPOAFvpTcF8/1ymT15lkLqBXSJLxtIaVqV2Ugj0DT/DGa5et0kziO9vGgNJ8Y8lH2sxzOt6H53Ibmkw35qEzVJ45g1HUjivhCLqMsVhkBFcltljak8W1qCLNPq8FHRGORY/VZPk8SqnaYGdLtRVjquqEOkFrW50x/qMP8O1yWp00oUVD5N7RtBw+fEpllSkfQELcab6dnQPXwSIgDTkI8/90EXmyvTz/BqTP5CyIfnVPkI7OtPgvNR2eQiXdUPh6Wo+6HInNR1+rXovz+GwEV2T2XM3MyRKRBt2Y1oBFBPp/jDb6Zz+rdTOtD9Evz0q8SISmioieeRnoq6sTiGSMiDT4NEIMIIygi17006t1ogmO0g/ZvEy1ePJZEzRYyxhshbrZ7plpqB751iDTHdP9Q2uZTi+rDJdxvI3L2e5CPJobMVkSSB7gvuhVRMrgXddRFmZxCwAjoFBTFtSDnq+YO0+dELQ3xqO/HOEBjPMiyBjw/AQHJoa3Maan+ae2zuC4mojYiiK0Q6t2rqT+aSlBzkLawHwJqJX/GiywFGq+S/z5xHn09peW0ghXnC5JQRNGnVot8+raRj6JmXSEfnUwz4+7BzyTTMFBNn1y5llFEP8+xFncKey0YHO3gKM4fSkgcTo6JPinRdDUKOeuBF/nE+R5SxxTbN9X2pq/56SbMLIgm2BveIyRIdtVO594rTS8gIpuLxrSR70vO3QsJ1bBPpiSkbh79RT44nG8937nRJDx2VTajqYqEwsS7NyIggg1JjF8dVodiXWcEVKx3ppN6qbEGG2wnhxTl5pFoBWNpmIvI2wl7GCu5zhe3oPFh4vSCLPjZTkTOl4zzV3WDhO7JkIRS5HM75HML5KNs69OR5dRRs6gG66dzek50cpkqCTRYikV7lIPaYvut9ssQyDMC6sc2qwofu9ShENFkf4+hAW3YhcYXogXpECVnioTunAuZVNPlgXN5CYkh59OqU+SDzycX5LMLs3ilSDLCAbSLel+KU3soBGQDkrW/KWEvnfZ72C9DII8InA3BzMCX040nURwU1CC8qBGmzVMb6XE+0s82DqtOioS8beT73NMSbo4dgiQ0h9jtIh98Pqer+ai8JWhdIkjP/xO8ALZLA7pwuN9Pzauf/TuFgGlAp6CwhUIgIIKZQuOsxwwL03DUnofz7+drfX+RGnmUpEjI04TwSEsTOgrhSBuSz2wH/qS+Ih+ZXTkin6M4wB9fQ49+SDLoRFc9PU0Mcp2DZiYT0qQ9AqYBtcfDfiWMgAiohkjfxTTQ+3Dkhj2QvdGSVpOGMA8SqmLfuEHpPRIa6zuiBywmhwrtpBmS6EE5s/E3vW+Ccx+YmRvNR1AtbPHHAVKveU9bC+Ans2w8/iVF7PoYAQXQCb/fHXayFYZAPhFQ14drII2HIJi3abDSetoJK6r4fGUZvp5aTLaaeF+KR0Jj6KyLz2VOI5rPfvxEkJjGZJ7TQIY063Mhyk/6+RJSCQi/h5GPytjH9fxRvT+rqpkbHVEPe+F03MvWGAJ5RECEcz4m02wIYiEaS1gYXbPJbkVDuvtViAgtSN1X4sQz7dA6pHkcwfRSAqD61uVKNK7Pb15jaA98U3BMh9wflaMsbtcXcoUM+5KEaNIRgRzeko4ntzWGQCYIyHcyAh/QjZN8TSXqmFo0pe+vYmA2Gr5GDshUNGhbLslHg9MvanbuXxb6XTCitJ+t7PfZ0X5muzcdd6YVLqP9jIDK6GYX+6VeM46QPBpLVFKlGvpIPn/4AnOuryNL+ljyVyTyWbPdua8+w9xhjEcUpq2pVhp6tTu5Px8i2qahc03CETACCsfF1iaMALzidTv5yAxGFsRciQp2SZOoPEHDng8J4TPaR/QpKRGprNvh3N88yTxm5P1EJRWq7lv49+cTIVRMS8t+jr5DRkDR2NiWAiDwrvHOXYnZIudkGAlpXT82DsEEu+kJImOYZJptIkprytUlKNy+DP/UnzxGTlITWg1EGCWHIarziHzdCpkOMO0nCiZvvRFQLDy2MWkENC3179HBdGpluGNX9REJDYCERqD93AIJfY8uGBt3+x1zc11f5SbtJdr1yGrnPv5bNJ8WMppjyMebvJBw+59yDROGxUfrcl3XM/F8RkBn4l0r8TrPHOl3kRhFBClMC9Lla73GUKqBIL7yMqHuR5jbi4RATW0t0jhdjUgJhBpn6LVtzn3taSYSeJRe90ThBlJmlKhOKGPuThIdb8T3oyFaTeIRiIEz/kDbagjkE4GbaMAtNPh7CbvvPB5ekhq8wuv1OJBeISp1w3Ya/xjnPnIuuUKQmJy/chLLeR2WpZx+Vp1LpCXyUoh9ExrVbyC0u1cxCwnO5hq0nu4xmo/OpbGk39Pg3GfmmOmVjm3cshFQHDq2rWAIyMF7xwX+aIj/s9IfmAweCRc2SDPpj+/lV5hK925gWp4q564ejS+GDOuGQWzDsa2OoMH5xVKkIx/PVsYdWgGJPdOIb6nJn0hQs5WMyqCVnIS8zoP0/uYKf/LIqNB8+AWU79oMoC1fcOzKC4vAQPxBn73Y9+08DLFodMRIEqKqavQVPNFvQUQvQSDPNvvdNurogjEWEqqrwH+DWacByLTvMUhHs8+2kCm9Hm1rE987MOG6cbyGvB3eicaTQkfm2rThzv3tVf4MHEY+KWQ6/zYC6hwj26OACFT2ce4Ll/vjNf9qhW+OwQ2xIgLQMB7wl3sL820DJLNuJ8v6DVnoWyIy0746nz4y1/ry0XxgmYrOd34NeUGQz7kj/PNleqzt50c7DQdDoKgR0Jzsf3ypP/PoPfiENmEqiTj4ixVtl+8nHxqJiEf9y9411rm/uIzRFBlHOh/lxF5gCWw0DagEbmI5XIIGjdckgRq/54eE3Z/bQoNHlUl6kHd4xxtiYzCa2R2zmUFjlj8tc2dO7nK4R125RiOgrqBmxxQEAZlI6q4hEvrlMj6vEaFCG9IcYFFdInJVUZltyvHRjKlX1DFd8/nOza3FhEAL6kwTy1UdSvE8RkCleFdL/JrqMXe+cBnDnDYwG8ZyJhzc6HdO7Q8TyCzKJSF4YXnUnjdoKRcQ5bp1mnPXj8ccRAMyk+v0HzQjoNPH0M6QMAIiGIXp56KJTCXc/mHMMUXJHtxER1E0ov5oKv3RijRof7YkwaF+LhCks4vPEPxPV1HGByeh+Yz2o2gy+8zkys1NNwLKDY52lgIgIHLR+M4XQkQzyfe5g4RBJSQ+1UgIngzmjUpLJtSutGkRkmZH1QOfIg/lAIlwTvC9nwU5lrXDQLSbCzHzrqplALQ6v0uFylEeUepY9jTJAQJGQDkA0U5RWASkkSi3R7PJamLB9032O6hu2EP4nYzmRoipkRyf5sOE8SGkLXyOQzjVdJUYxmcEWs7oAc7VM9DZ6EEMoTqUYT9Y1vjRMuk8jaewl1iypRsBleytLb8LkyNaTuIefJT5XAMZXToa/w2JhepeoeE05NPRLKtSdqRBiVyk2fTiGM1aqt+pdeWHYPJXDOQmhkDpISBy8cbrQYNxaDkkQ/sdW2EekU9KUiYVu5sUAAEjoAKAbkUWBgGPZPhnZFMY/MNKReE0MQQMAUOgMAgYARUGdyvVEDAEQMAIyB4DQ8AQKBgCRkAFg94KNgQMASOgXD4DgQhLLk9t5zIEShEBi4Ll8K4qpKsIS3qYN3h6L9s2uNJ+5wUBzUyqcZ0Pt300AJlygjSAmO6D8n/UmVThes3brmRG75uwvUkyCBgB5RBn5Z4omS1FQvoOihLi1AXAJD8IHGAAMk3To5lTNXf73qMM6woBHYF8joH9G2AvAtI9UOKiSMgjIO5bX4hnAAmMQ+mKMZiRE4fw0bAb2sckPwgYAeUQVz3QysLV8xrKMWw/TENQAzDJHQInyWzefpAuFnS3aOWzheU9jIKoOeFPovFI0jkk/cWQuhX61kdko8kPB6ANjehHdw26aKhbRhXf6g9mklsEjIByiKcGPNcsmNKEQkmG9bt4I7/Z1ihyWHRZnkpdK7ZBNprBYj2fLWg+0nZkXolwZBL3SGeeDFCSZiRNSRrTNrSo1Zy3Un3F6CM2mg6qNXxr7jKT3CBgBJQbHL2zqOOiZsLUMBChBERj2MhwEam3cg6LLrtT7YBs1u5wbhVjPWtQMpEG8J/q39VVQERaOk9qgDP5jFqkXUFGayCjCZDQpOE+EUlTMjk9BIyATg+/dkdrIPTK/rx1eYiP8SZN9TNK7aQBs5ZgIhzBT2HSNQSOQjQbdzFN8hYIgd7u0lS8fl9ZajqZlq5z6yPzbId60+NX0uwZMxmAXkSkWTZMuo6AEVDXsQs9chgE1BsiOkBDCUo/GskG3qbbeGPXMeSD11kyuJP9jkRgD+brSojnFT7SgETw5+SJeIKVoCjPPyQiaoaAREYy/86rYR4wzLKUxhQ8zn7HI5DQ7YuvRCltHYXDUvNZ6UENiuePwDm6lje43twmmSOgSQOf3eDck5t88vGGzRArZCDy68gk1pjOcljLd6SPTGH99oboYDt/nYqKFOmd5AUjIpy3Fj/Rdv9cnR5sO3RAwDSgDpCc3go5KqWWr+HtGBTPJOOBf4kH912T/NkUgvvY744ItDCg2PyNzNOOv0dj+WQSFpcjWh+RikwoBQc0l7y0zpS2ou0iIPmPjrWRUTfW6a2sgEIcv4kAtd/Gvb7jW4Q0CbNM4wqZZI6AwZU5VhntWUXoVpGSnjhI9YYN+oEqyTW5u8W5T/PgVqEtpRpDRicvw51EPo+vZ2RDtEaRiRp+nEjTEbGIaCrJ6RnGy2AIuTwDWdYIhyIID3PYRWQmTUjJiofwy+3Bv6OZUXdi6ild4iyRUQwRiaCk1e7EHPvtOjQpfmuManNOx92h9tuMgNrjcdq/9KadwJtw0AZ8BDyRtIN2oilkHObEwmaGEMWJqUQ3k3AElNvzJJrPWqJPIvI47vE0Hk7TB/xH4Yer4yUwktydobwQlFwo4onTaKQJiYSUvLid+yM/z2Y+yicS88W9KGSSaYrnxyBKEd+kYZhpwRsffollv9YIKA+PwIxqEth48LfwZg0+h6moyj28MS8fYwQUBf9+GrTMrtcxu0QcUeQBN3iajBp8LYQzodLP1xmuaGQQ/KjCWC8S0Qys+mjeMWVQbybKtpby1/F9kHspAgxqtKlTShPaC3lJW+uDltvAOeJIK3VcuX8bAeXhCZjIG3Ac2s0KzCy9WUU66TIK1F/Yhi9oM0Q12H/o07eX+7LMImmIy8FIEoDPX8l/z7nM92BI41wwl/kzquL0G77K0zkH8yKp4/7UUI+lfJrRjKRpBe9nqkIiPGVhP73Jz5oexksoirBSx5T7t0jdJMcIqE/R7DpMgF6+XyB4er0Zz+FB/v5KMni3+w91cJ9y/S1SWYPW8SIEpMYeRz5wu6tB07lyNFPojPPNrlxrHSKiCxsIGox3blqbaaV6RYn8P6up/8IWvxNs1H623kfACChPT8IFdfgCMAf0tlSjShf9HIkWtIi36iOr/f5L6dvLeVm5Ps81+pGlKO1BeArD0Wg710I859f4Zk++cBMJyiy7FhKa3eZkDt7TVNna9xz+vQgBNWK6KfRvEo2AEVA0Nqe1pZ7GMXeMrwURoe0galxVkNDfogW9iN/gIA7Qchc11ldb6fqA8zdKkxHxSAMRvponfgJaSZRJlGs8lV4hTWsWppl8TqpLmChSdxSf0QK0uH0Qqkk0AkZA0dic9pbLxjo3gwYiOyLsjamuG90gnq8vQhvaXN7JbGrMyixeDAGFYZW6GQqdV2F2XQ22moQQaBMVdUS9ghfLVHx8USSpCskU06SIcmJrCBaTcASMgMJxycnaMTSQyyeivuOMPBlyRjW6OrSg5Tyk332ZfmK8MUM7sYYcW2qrlI28fKsfzo4yvYSNBg3THO2jwTYpzSeItTLdRUK1aGFRomsQkb7KNR1QKN8kFAEjoFBYcrfymgnOXVbrvxFDyYUHtf4c537V6NxdkNCylvJzSquh7iKZbwXJm1Eajcha284f5ZyijJ0lJObuDoafqRJz7NL6+KE5ZKYpl6iRaKgieyYdETAC6ohJTtdUkmh43bnOzaHzqTRxNaQO0kZC/0lu0Leeo4/RZj9832G/El0hn47MlX1HIJkIBpKGpH52IiAlexaDKOdo6ohoU0yNS2M/vQaxalhYk44IGAF1xCTnay5ucO4GSEim2IlQBqJIkRAN656NOKafIgN4jR8Jito955Us4AnlI1HoPSq8LQzU/+sCyKeCsHgERyV+BTIBZ+OQjhuSQwmOjfvIqEbDi7q+xCteRAUaASVwMwTyDVOdu5Ewrob61LjEodJGQvPxG3z6cef+6xUS21DhS/nB1bVtZ2iNVpL8onw6io5J+xmHFplJR9RQbPO0cgQO8YloQhqELkxkKh5A+1HXDnNGd0TICKgjJnlZM5ikxPfPcu59Dajs+AZC/UEqmQdZ4fk3eWP+0fPO/dWjaEOYZnJkliIRyf+j7OGjeOmjzC+tV9RJDuhiFA1MFjdMq66xyQgo9NYZAYXCkp+V43mDf/wC595TB8HQqOIIRWFcdnOPbHDuzkec++rvSNDb9A4RxR2bn9rn56zSbjSQfNT1KOyuxq2oV6Edz1EIKC1Ag9ZzS0OFW+mNL63OribtESgSd177SpXyr5kjnfv9uajjOCcfv3GYNQAAD2RJREFUbUJ15+0YZXrozT9Q2hLaz09XOvcbyOgSfA7KgZmDP6Qas8Tr5d325Htf/Gv7WfQwcunuBP6fVjSgqDoDkxtF45bvJwqnQl+o/DwKycuRrvsavBaZjcrw1pRBcqYXK5EWAkcjoAKgPrfWfwjPecG5Bxvptc1DGde4lPCm8aRPQEQa8uEJNCGNO6SuHtNHMKwH3QTU+1vzWakntkhJE+6lh9zUKHqwTY0lytTJFAoRhzQWaSdajhJvW8wOMk3U61wRoqg66fAaiDbTnu0ag0nmrfBUw4/DNazeqpOOl2bG4e5ssNR3Z5J6GYSF23VtIqaD3D+d1wjoHTSNgN7BItElhZN7X+77NX62ltCyHkyxRIyoMfXko0aicaU1TOnTG/wco36YKfKRqKGGNTwRj0ZrvGkSWlQ9+3XxzquBNe313/Yij3RflurFn/fPW26rq7dK2/Rpu0Zvmd9qmJqxNIwodC4Nc6Gcm7DtOm9K1LA1Nc8K+tdpvOhekO1ETN4pw33tKbVf3LeubQPnWEoQQBqLyHw8mE2r6nxOMGlo/cBfDucgK3uXzMVozCCNjsCtMmlDoIuPoeGXCwTOpXF8/kr6i/GG/94ywu7kwfTS67atkUaVoc3pZKXGp7FoNKKfRA1XQ4sGZQUN65lNzn3pUuc+PN3XhoL7xP3W0KWLWxibudE5jdcjiauqVw9/t2CbbFvrHx+p/XACEYl8QFH76EQiwUXNfr12Qxyqk8oWIal7x+Wj40PlOociVJpp45F1fj+uVHmb6FCqvmnvJqM9ztGs4V77Q0AqWGV3wIWVKRNM5Zn4COhxNykgAjIv/uAi5755NWPaYE5t5UFN1yoyrZoajLQEfUROGko0+OnGOmUcf/tlf2qbKMdvVJkbdjGGEQ1dmk+qLJUb9dE+qW2p/YPf2h4lasjKJpYmErObayLPZkkroxlSL+/a2VnfMhGXoBGtIREwzDRKlatydkBUzzT65qBMpFQ9Re4aFE3njxNplL0gIB0XJtL8pO2pTibvIGAE9A4WBVvSlL/vmwIx3ODc35xHYyFkv4M3cleIqLOLkHm2TA2Wt70aV6aixqPxmTWza1Qjy/RcGe8HM4gMREJxDNRKvTSOc7Dt61iF96XBSPuIEpHTNsw2zYQqfIKi7RvRpqQBRokIT2ZupHAt8k+J7EzeQSAOsnf2sqW8I6DGMnG4c1+4zLlfvJdwPb6aZt6qrTSgbIiis4qqkaoheSZUFq1BM4Rq8HY1osQIiLqqvnEDw+t65UOSbyVMtFrXq/pHifxRx4Uz+wRJTMcIJk2I2Jn2EqfN6TyexpkF5jqm1IVH3KRYENDDL2fypaNxfI507hbU/vtX0VN+Ixt4Ow9ih35oAyKAsIaSyXWosTnuuvxOnTWY9PMpqtYTU0hvep0jm2PTz5PVMmWp0Sp0rWpHXXN/NEblTSmkn75T6hhpmHH9x3RN/TjHOeCi8oIEq3I1sL0XWYy5gDiC0jn0kkmvX8ypymaTEVCR3erUgzqIkPplYxj8ahSJiKj/CzY79/AGBj3Hn+FkTtAoh9DoNA00Xz4psazjo0SNaxuN9Npa+jBBcGHmRtSxauDVFZAg5WsaGv3Ot8iRLjPUIxa+oy5O4zZX96fTJ7h483oBgnaX6STi0LhBA4lSRYlMPM2gMWaQ3ydNDmURrM4h8pNzWdG0uFQAaakqT8dEiY4PklvUvuWy3gioSO+0iEQEofDuVMhCQ1B8eCrDO+x1bhUkIOfqC9uJ/uC78AYbwoQQKXktIPXNz1OiE6LBXFXDAGhXMl8WDTZbLUaZ3Brhb35jmyP61MmjF+IapI5Sg4wkM65f5HOIa6tk3yjOG0FO1CUNmFAUphksvD5XnFfjOV9RRyidg6V8xImmR7pujG/uavgMEZ80lqGc46Jan4DijpeZ5812y3EU3VFYqfwsI6D20BgBtcejKH+JiM7mLawoy2AamwjpA3rgeeNrKFd15tTn0Anf3xHmE9E56nnDq/e2JkTMRvtJgdIbApsDgakDpvJl5EcS16lRpRpditT0rXXe+rTlU9vbTipyUU94aRDevqnCdF4+IhORnmc6BndI21djNg9C21FETNEwNXZFGJWgqXp3JsJDmtRHp/p5TsrZUQqAzqGuFnHaj84tZ7fuBfwTKZocsSu4R56wBDYYAZ1BN1HtT5EWfdSoBvB2Hs4TX49mIlMh5eRUIzjVELTQRgB6o6d33ejKpatcNXZ1PZDP41Q5OllbOW2L4advIxF9iVQU0pdWp8abIqf0A0VMIlfv2tI3BJZFgkP6+qaWtBedXz4b+XcyFZFDJQQvrVPl6VCZZ5loLUpvkJM+TDyMOFkFvqjO/Ehhx5fyOiOgM/juqoGo0Xpv5yj7JA/Xp4aaqze5GqcmA/SGLdUFBUTX5/UkR8PoTAvRviKMDBSeQCnv/FQVOivnnb3fWVKoX6kKYSKiVi6TnOGeIzpspzJdx6NkYggUDgE19mocwJ6JFVINaTDK0dmOhpGPvKiQIrNepXnk1T0lKl1C9VY/PWms2WhkWVfkDDzACOgMvGmlVGWZN+rIqTGSPFMlcHHaLtNm3S4IKELDCByS+E/5ndT/LKz+qowIaCSmXSa+qMQrX+ACjYAKfAPKvXiPgHDyyjyJasF6SDWusvq6RWlKhcJRWs8qIpLSgsJEpHQW5FoHycr/ZtIeASOg9njYr4QRkN9GIXBNNBjlaFYm9A5MsJXbozOeE672qeLUWVWdXuGhUBFByfxS4mdXRyAIPXGJrDQCKpEbeSZfhhzHGttIju0wMwaO8iJSi7fGj56YNAbK+9Ec8HH9zERA40l/UAhe12HSHgEjoPZ42K8CICAtqIHQvrKRo7QgOW8V6n6xqS1iVoB6phcpolxKh16NghhGmtpXvp8+5G6JXPVt0hEBI6COmNiahBGQZiAf0PQqP0oU1aBFQpq88NVWP/Ev4Wq2K05TLosM43rIq+PuRBEr5leu0hbaVaIEfhgBlcBNLIVLELlMpruJImJRjmY5rBUJW0DD1zTOXh+xAly8ol7PbPT7xIk8w0SJob3RejQGuDoYm4QjYAQUjoutLQACSkjU5IPqGxZFQtIk5HOZv8kfwTBOA8nHJShr+6n1jA8ECcl0DBNpcCf5N5MB5pQxbtpPGEr+OiOgaGxsS8IIqEFLC5rEJ07UFWUnIfkn0UIWN8c7gePOk802OZNldj0J+awmJ0ncE8E/XkKiOsieV23aT2cYW2ZCZwjZ9kQRkLP2wlq//9fWg9H9sDRYvUZnfAISkkakgeM1N5fMtFyLOt2uk88HslO3EGk0UcXI8axw+yVcg3w/+ahPrq+vkOfr9jZSyApY2YZAEAE9kXI0P7rO76Qa14ilmShPaBLOXjmx6wh5qzNplHkULCvut8Lsmn1kFflHr5JsqA6zceSjesv0EvlcNZauF+b7iYPX22YE1ClEtkMhENAwHM838tnsR7ziSEihew3JKh/SZEYG0LhFGoZDfa8ixxqKuCg5jzWsyW5C/o0kGa5E82mGhDTQWZwvR+Sj8YjOJeR+/YS28ZYiyrDV7yBgBPQOFrZUZAiICJ7d4NwraENyNseREG3f872ou9hgkv4acP42oA1pTjEN2apuEDKNRCKpMaZFXCIcjWQowtP4Suru0YyZtQFn81b6d6knuxIlo0wuQSbykek1hvGErh/va2Fab9I5AkZAnWNkexQQAQ0M9vxGTKAtEEQnJKRqiohEKtJGRBwapGwYXSE0OqKykTUsRopQZL6J2GRa7aEcDTWrwcxkesFTPlnFMY/KoxxO4w3nKrNLs9SaZI6AEVDmWNmeBUJAJPQypthiNCHNPCr/Tie84NU0peFIO9EB3nFtB+pLq0Ug+tY/rTubfykNSavjROfXOSdAOpeNZuZZNCCT7BAwAsoOL9u7QAjIHFvSAgmhCWlsIBFHnEkWrKZIRh//X9pWCETEo0+movOIfPpg0k3G53NhvXOjiHiZZI+AEVD2mNkRBUJAJtNqIlLShDaRCCi/TabaUK6qnNJ6KjHrpo/wZy2R89ukawgYAXUNNzuqgAi0EpVagSb0OgmBSkj0QvHUR2SUD/G0J/7p/P3wIcm5PZWQv2YqiZ0NNR+VKbFzGgGV2A0tl8tR5EqjJEojUveIvTiSRUSSXGlFKf9Qing0O4ZC/JPRfOTUNjl9BIyATh9DO0MBEdBIhJq3XZnK0oz24rBWZEumkuSUUsTCqWV/06n/bbt6/qHUskhH2o166Y/A3NJwIePQeIYT1jfJHQJGQLnD0s5UQATkD9oCAUkbaiWPZzemmRzXmqlCIfmUNqMqalniEVIbKynsruiXunj0xcxSyF7zn9VibtWQU1TBb5PcI2AElHtM7YwFRsDLZIaAdhz0BzFTno8Gtj8KSb0BISksLxLSFDlKTNTMHOqD1o+PpsRWFvVQNB116WCzSR4RMALKI7h26uJAQAODKblQWpK6bIQRkGas0JzwJskiYASULN5WmiFgCKQhYBpmGhi2aAgYAskiYASULN5WmiFgCKQhYASUBoYtGgKGQLIIGAEli7eVZggYAmkIGAGlgWGLhoAhkCwCRkDJ4m2lGQKGQBoCRkBpYNiiIWAIJIuAEVCyeFtphoAhkIaAEVAaGLZoCBgCySJgBJQs3laaIWAIpCFgBJQGhi0aAoZAsggYASWLt5VmCBgCaQgYAaWBYYuGgCGQLAJGQMnibaUZAoZAGgJGQGlg2KIhYAgki4ARULJ4W2mGgCGQhoARUBoYtmgIGALJImAElCzeVpohYAikIWAElAaGLRoChkCyCBgBJYu3lWYIGAJpCBgBpYFhi4aAIZAsAkZAyeJtpRkChkAaAkZAaWDYoiFgCCSLgBFQsnhbaYaAIZCGgBFQGhi2aAgYAskiYASULN5WmiFgCKQhYASUBoYtGgKGQLIIGAEli7eVZggYAmkIGAGlgWGLhoAhkCwCRkDJ4m2lGQKGQBoCRkBpYNiiIWAIJIuAEVCyeFtphoAhkIaAEVAaGLZoCBgCySJgBJQs3laaIWAIpCFgBJQGhi0aAoZAsggYASWLt5VmCBgCaQgYAaWBYYuGgCGQLAJGQMnibaUZAoZAGgJGQGlg2KIhYAgki4ARULJ4W2mGgCGQhoARUBoYtmgIGALJImAElCzeVpohYAikIWAElAaGLRoChkCyCBgBJYu3lWYIGAJpCBgBpYFhi4aAIZAsAkZAyeJtpRkChkAaAkZAaWDYoiFgCCSLwP8HnvVEEhFIeY0AAAAASUVORK5CYII=" parent="1" vertex="1">
                    <mxGeometry x="185" y="380" width="50" height="50" as="geometry"/>
                </mxCell>
                <mxCell id="5" value="apim-bicep" style="text;html=1;align=center;verticalAlign=middle;resizable=0;points=[];autosize=1;strokeColor=none;fillColor=none;fontColor=#000000;" parent="1" vertex="1">
                    <mxGeometry x="60" y="360" width="70" height="20" as="geometry"/>
                </mxCell>
                <mxCell id="53" style="edgeStyle=none;html=1;entryX=0;entryY=0.5;entryDx=0;entryDy=0;exitX=1;exitY=0.5;exitDx=0;exitDy=0;strokeColor=#000000;" parent="1" source="4" edge="1">
                    <mxGeometry relative="1" as="geometry">
                        <mxPoint x="270" y="463.41327923555286" as="sourcePoint"/>
                        <mxPoint x="508.72" y="543.75" as="targetPoint"/>
                    </mxGeometry>
                </mxCell>
                <mxCell id="11" value="deploy-apim" style="text;html=1;align=center;verticalAlign=middle;resizable=0;points=[];autosize=1;strokeColor=none;fillColor=none;fontColor=#000000;" parent="1" vertex="1">
                    <mxGeometry x="170" y="360" width="80" height="20" as="geometry"/>
                </mxCell>
                <mxCell id="13" value="" style="aspect=fixed;html=1;points=[];align=center;image;fontSize=12;image=img/lib/azure2/general/Subscriptions.svg;" parent="1" vertex="1">
                    <mxGeometry x="459.15" y="140" width="21.69" height="35" as="geometry"/>
                </mxCell>
                <mxCell id="29" value="" style="rounded=0;whiteSpace=wrap;html=1;fillColor=none;strokeColor=#000000;strokeWidth=3;" parent="1" vertex="1">
                    <mxGeometry x="508.34" y="192.88" width="142.5" height="122.5" as="geometry"/>
                </mxCell>
                <mxCell id="27" value="" style="sketch=0;aspect=fixed;html=1;points=[];align=center;image;fontSize=12;image=img/lib/mscae/ResourceGroup.svg;strokeColor=#000000;strokeWidth=3;fillColor=none;" parent="1" vertex="1">
                    <mxGeometry x="498.34" y="187.5" width="25" height="20" as="geometry"/>
                </mxCell>
                <mxCell id="28" value="apim-rg" style="text;html=1;align=center;verticalAlign=middle;resizable=0;points=[];autosize=1;strokeColor=none;fillColor=none;fontColor=#000000;" parent="1" vertex="1">
                    <mxGeometry x="480.84" y="167.5" width="60" height="20" as="geometry"/>
                </mxCell>
                <mxCell id="32" value="" style="aspect=fixed;html=1;points=[];align=center;image;fontSize=12;image=img/lib/azure2/app_services/API_Management_Services.svg;strokeColor=#000000;strokeWidth=3;fillColor=none;" parent="1" vertex="1">
                    <mxGeometry x="560.8399999999999" y="232.63" width="41.43" height="38.24" as="geometry"/>
                </mxCell>
                <mxCell id="33" value="sandbox-apim" style="text;html=1;align=center;verticalAlign=middle;resizable=0;points=[];autosize=1;strokeColor=none;fillColor=none;fontColor=#000000;" parent="1" vertex="1">
                    <mxGeometry x="536.56" y="212.63" width="90" height="20" as="geometry"/>
                </mxCell>
                <mxCell id="34" value="" style="rounded=0;whiteSpace=wrap;html=1;fillColor=none;strokeColor=#000000;strokeWidth=3;" parent="1" vertex="1">
                    <mxGeometry x="468.72" y="450" width="221.28" height="190" as="geometry"/>
                </mxCell>
                <mxCell id="35" value="dev" style="text;html=1;align=center;verticalAlign=middle;resizable=0;points=[];autosize=1;strokeColor=none;fillColor=none;fontColor=#000000;" parent="1" vertex="1">
                    <mxGeometry x="459.57" y="410" width="30" height="20" as="geometry"/>
                </mxCell>
                <mxCell id="38" value="" style="aspect=fixed;html=1;points=[];align=center;image;fontSize=12;image=img/lib/azure2/general/Subscriptions.svg;" parent="1" vertex="1">
                    <mxGeometry x="463.71999999999997" y="430" width="21.69" height="35" as="geometry"/>
                </mxCell>
                <mxCell id="47" value="" style="rounded=0;whiteSpace=wrap;html=1;fillColor=none;strokeColor=#000000;strokeWidth=3;" parent="1" vertex="1">
                    <mxGeometry x="512.9099999999999" y="490.38" width="142.5" height="122.5" as="geometry"/>
                </mxCell>
                <mxCell id="48" value="" style="sketch=0;aspect=fixed;html=1;points=[];align=center;image;fontSize=12;image=img/lib/mscae/ResourceGroup.svg;strokeColor=#000000;strokeWidth=3;fillColor=none;" parent="1" vertex="1">
                    <mxGeometry x="502.9099999999999" y="485" width="25" height="20" as="geometry"/>
                </mxCell>
                <mxCell id="49" value="apim-rg" style="text;html=1;align=center;verticalAlign=middle;resizable=0;points=[];autosize=1;strokeColor=none;fillColor=none;fontColor=#000000;" parent="1" vertex="1">
                    <mxGeometry x="485.4099999999999" y="465" width="60" height="20" as="geometry"/>
                </mxCell>
                <mxCell id="51" value="" style="aspect=fixed;html=1;points=[];align=center;image;fontSize=12;image=img/lib/azure2/app_services/API_Management_Services.svg;strokeColor=#000000;strokeWidth=3;fillColor=none;" parent="1" vertex="1">
                    <mxGeometry x="565.4099999999999" y="530.13" width="41.43" height="38.24" as="geometry"/>
                </mxCell>
                <mxCell id="52" value="dev-apim" style="text;html=1;align=center;verticalAlign=middle;resizable=0;points=[];autosize=1;strokeColor=none;fillColor=none;fontColor=#000000;" parent="1" vertex="1">
                    <mxGeometry x="556.1299999999999" y="510.13" width="60" height="20" as="geometry"/>
                </mxCell>
                <mxCell id="55" value="Inputs:&lt;br&gt;Environment - sandbox" style="text;html=1;align=center;verticalAlign=middle;resizable=0;points=[];autosize=1;strokeColor=none;fillColor=none;fontColor=#000000;" parent="1" vertex="1">
                    <mxGeometry x="265" y="285.38" width="140" height="30" as="geometry"/>
                </mxCell>
                <mxCell id="56" value="Inputs:&lt;br&gt;Environment - dev" style="text;html=1;align=center;verticalAlign=middle;resizable=0;points=[];autosize=1;fontColor=#000000;" parent="1" vertex="1">
                    <mxGeometry x="280" y="477.5" width="110" height="30" as="geometry"/>
                </mxCell>
                <mxCell id="61" style="edgeStyle=none;html=1;exitX=0.5;exitY=1;exitDx=0;exitDy=0;" edge="1" parent="1" source="58" target="60">
                    <mxGeometry relative="1" as="geometry"/>
                </mxCell>
                <mxCell id="64" style="edgeStyle=none;html=1;" edge="1" parent="1" source="58" target="62">
                    <mxGeometry relative="1" as="geometry"/>
                </mxCell>
                <mxCell id="58" value="" style="rounded=0;whiteSpace=wrap;html=1;" vertex="1" parent="1">
                    <mxGeometry x="70" y="800" width="120" height="60" as="geometry"/>
                </mxCell>
                <mxCell id="59" value="Master" style="text;html=1;align=center;verticalAlign=middle;resizable=0;points=[];autosize=1;strokeColor=none;fillColor=none;" vertex="1" parent="1">
                    <mxGeometry x="105" y="820" width="50" height="20" as="geometry"/>
                </mxCell>
                <mxCell id="63" style="edgeStyle=none;html=1;" edge="1" parent="1" source="60" target="65">
                    <mxGeometry relative="1" as="geometry">
                        <mxPoint x="420" y="940" as="targetPoint"/>
                        <Array as="points">
                            <mxPoint x="400" y="930"/>
                        </Array>
                    </mxGeometry>
                </mxCell>
                <mxCell id="60" value="Feature-a" style="rounded=0;whiteSpace=wrap;html=1;" vertex="1" parent="1">
                    <mxGeometry x="160" y="910" width="120" height="60" as="geometry"/>
                </mxCell>
                <mxCell id="62" value="Master + A" style="rounded=0;whiteSpace=wrap;html=1;" vertex="1" parent="1">
                    <mxGeometry x="500" y="740" width="120" height="60" as="geometry"/>
                </mxCell>
                <mxCell id="66" style="edgeStyle=none;html=1;entryX=0.338;entryY=1.048;entryDx=0;entryDy=0;entryPerimeter=0;" edge="1" parent="1" source="65" target="62">
                    <mxGeometry relative="1" as="geometry"/>
                </mxCell>
                <mxCell id="65" value="Test" style="rounded=0;whiteSpace=wrap;html=1;" vertex="1" parent="1">
                    <mxGeometry x="378.34000000000003" y="830" width="120" height="60" as="geometry"/>
                </mxCell>
            </root>
        </mxGraphModel>
    </diagram>
</mxfile>